<?xml version="1.0" encoding="UTF-8" standalone="no"?>
<!-- Generator: Adobe Illustrator 21.0.2, SVG Export Plug-In . SVG Version: 6.00 Build 0)  -->

<svg
   xmlns:dc="http://purl.org/dc/elements/1.1/"
   xmlns:cc="http://creativecommons.org/ns#"
   xmlns:rdf="http://www.w3.org/1999/02/22-rdf-syntax-ns#"
   xmlns:svg="http://www.w3.org/2000/svg"
   xmlns="http://www.w3.org/2000/svg"
   xmlns:sodipodi="http://sodipodi.sourceforge.net/DTD/sodipodi-0.dtd"
   xmlns:inkscape="http://www.inkscape.org/namespaces/inkscape"
   version="1.1"
   id="Layer_1"
   x="0px"
   y="0px"
   viewBox="0 0 499.99999 263.60002"
   xml:space="preserve"
   sodipodi:docname="Cisco_Logo_no_TM_Cisco_Blue-RGB.svg"
   width="500"
   height="263.60001"
   inkscape:version="0.92.3 (2405546, 2018-03-11)"><metadata
   id="metadata43"><rdf:RDF><cc:Work
       rdf:about=""><dc:format>image/svg+xml</dc:format><dc:type
         rdf:resource="http://purl.org/dc/dcmitype/StillImage" /><dc:title></dc:title></cc:Work></rdf:RDF></metadata><defs
   id="defs41" /><sodipodi:namedview
   pagecolor="#ffffff"
   bordercolor="#666666"
   borderopacity="1"
   objecttolerance="10"
   gridtolerance="10"
   guidetolerance="10"
   inkscape:pageopacity="0"
   inkscape:pageshadow="2"
   inkscape:window-width="1914"
   inkscape:window-height="1052"
   id="namedview39"
   showgrid="false"
   fit-margin-top="0"
   fit-margin-left="0"
   fit-margin-right="0"
   fit-margin-bottom="0"
   inkscape:zoom="0.40816326"
   inkscape:cx="254.90001"
   inkscape:cy="133.65001"
   inkscape:window-x="0"
   inkscape:window-y="0"
   inkscape:window-maximized="0"
   inkscape:current-layer="Layer_1" />
<style
   type="text/css"
   id="style2">
	.st0{fill:#02BCEA;}
</style>
<g
   id="g36"
   transform="translate(-137.1,-137.1)">
	<g
   id="g16">
		<g
   id="g14">
			<rect
   x="278.5"
   y="312.20001"
   class="st0"
   width="21.9"
   height="86.900002"
   id="rect4"
   style="fill:#02bcea" />
			<path
   class="st0"
   d="m 477.2,337.1 c -0.9,-0.5 -8,-4.6 -18.4,-4.6 -14.2,0 -24,9.9 -24,23.2 0,12.9 9.4,23.2 24,23.2 10.3,0 17.5,-4.1 18.4,-4.6 v 23.3 c -2.8,0.8 -10.2,3.1 -20,3.1 -24.7,0 -46.3,-17 -46.3,-45 0,-25.9 19.6,-45 46.3,-45 10.3,0 17.9,2.5 20,3.1 z"
   id="path6"
   inkscape:connector-curvature="0"
   style="fill:#02bcea" />
			<path
   class="st0"
   d="m 248.4,337.1 c -0.9,-0.5 -7.9,-4.6 -18.4,-4.6 -14.2,0 -24,9.9 -24,23.2 0,12.9 9.4,23.2 24,23.2 10.3,0 17.5,-4.1 18.4,-4.6 v 23.3 c -2.7,0.8 -10.2,3.1 -20,3.1 -24.6,0 -46.3,-17 -46.3,-45 0,-25.9 19.6,-45 46.3,-45 10.3,0 17.9,2.5 20,3.1 z"
   id="path8"
   inkscape:connector-curvature="0"
   style="fill:#02bcea" />
			<path
   class="st0"
   d="m 592.1,355.6 c 0,24.9 -19.2,45 -45.9,45 -26.7,0 -45.9,-20.1 -45.9,-45 0,-24.8 19.2,-45 45.9,-45 26.7,0.1 45.9,20.2 45.9,45 z m -45.9,-22.8 c -13,0 -22.7,10.2 -22.7,22.8 0,12.6 9.7,22.9 22.7,22.9 13,0 22.7,-10.2 22.7,-22.9 0,-12.6 -9.7,-22.8 -22.7,-22.8 z"
   id="path10"
   inkscape:connector-curvature="0"
   style="fill:#02bcea" />
			<path
   class="st0"
   d="m 383.6,332 c -0.3,-0.1 -9.6,-2.7 -17.1,-2.7 -8.8,0 -13.6,2.9 -13.6,7.1 0,5.3 6.4,7.1 10.1,8.3 l 6,1.9 c 14.2,4.5 20.7,14.3 20.7,24.9 0,21.8 -19.2,29.2 -36,29.2 -11.7,0 -22.6,-2.1 -23.7,-2.4 v -20 c 1.9,0.5 11.1,3.2 20.7,3.2 10.9,0 15.9,-3.2 15.9,-8.1 0,-4.4 -4.3,-6.9 -9.8,-8.7 -1.3,-0.4 -3.3,-1.1 -4.7,-1.5 -12.2,-3.9 -22.4,-11 -22.4,-25.4 0,-16.2 12.2,-27.2 32.4,-27.2 10.7,0 20.7,2.6 21.4,2.8 V 332 Z"
   id="path12"
   inkscape:connector-curvature="0"
   style="fill:#02bcea" />
		</g>
	</g>
	<path
   class="st0"
   d="m 158.9,218.8 c 0,-6 -4.9,-10.8 -10.9,-10.8 -6,0 -10.9,4.8 -10.9,10.8 v 22.8 c 0,6 4.9,10.9 10.9,10.9 6,0 10.9,-4.9 10.9,-10.9 z"
   id="path18"
   inkscape:connector-curvature="0"
   style="fill:#02bcea" />
	<path
   class="st0"
   d="m 218.7,188.9 c 0,-6 -4.9,-10.9 -10.9,-10.9 -6,0 -10.9,4.9 -10.9,10.9 v 52.7 c 0,6 4.9,10.9 10.9,10.9 6,0 10.9,-4.9 10.9,-10.9 z"
   id="path20"
   inkscape:connector-curvature="0"
   style="fill:#02bcea" />
	<path
   class="st0"
   d="m 278.4,147.9 c 0,-6 -4.9,-10.8 -10.9,-10.8 -6,0 -10.9,4.9 -10.9,10.8 v 115.4 c 0,6 4.9,10.9 10.9,10.9 6,0 10.9,-4.9 10.9,-10.9 z"
   id="path22"
   inkscape:connector-curvature="0"
   style="fill:#02bcea" />
	<path
   class="st0"
   d="m 338.2,188.9 c 0,-6 -4.9,-10.9 -10.9,-10.9 -6,0 -10.9,4.9 -10.9,10.9 v 52.7 c 0,6 4.9,10.9 10.9,10.9 6,0 10.9,-4.9 10.9,-10.9 z"
   id="path24"
   inkscape:connector-curvature="0"
   style="fill:#02bcea" />
	<path
   class="st0"
   d="m 398,218.8 c 0,-6 -4.9,-10.8 -10.8,-10.8 -6,0 -10.9,4.9 -10.9,10.8 v 22.8 c 0,6 4.9,10.9 10.9,10.9 6,0 10.8,-4.9 10.8,-10.9 z"
   id="path26"
   inkscape:connector-curvature="0"
   style="fill:#02bcea" />
	<path
   class="st0"
   d="m 457.8,188.9 c 0,-6 -4.9,-10.9 -10.9,-10.9 -6,0 -10.9,4.9 -10.9,10.9 v 52.7 c 0,6 4.9,10.9 10.9,10.9 6,0 10.9,-4.9 10.9,-10.9 z"
   id="path28"
   inkscape:connector-curvature="0"
   style="fill:#02bcea" />
	<path
   class="st0"
   d="m 517.6,147.9 c 0,-6 -4.9,-10.8 -10.9,-10.8 -6,0 -10.9,4.9 -10.9,10.8 v 115.4 c 0,6 4.9,10.9 10.9,10.9 6,0 10.9,-4.9 10.9,-10.9 z"
   id="path30"
   inkscape:connector-curvature="0"
   style="fill:#02bcea" />
	<path
   class="st0"
   d="m 577.4,188.9 c 0,-6 -4.9,-10.9 -11,-10.9 -6,0 -10.9,4.9 -10.9,10.9 v 52.7 c 0,6 4.9,10.9 10.9,10.9 6.1,0 11,-4.9 11,-10.9 z"
   id="path32"
   inkscape:connector-curvature="0"
   style="fill:#02bcea" />
	<path
   class="st0"
   d="m 637.1,218.8 c 0,-6 -4.9,-10.8 -10.9,-10.8 -6,0 -10.9,4.9 -10.9,10.8 v 22.8 c 0,6 4.9,10.9 10.9,10.9 6,0 10.9,-4.9 10.9,-10.9 z"
   id="path34"
   inkscape:connector-curvature="0"
   style="fill:#02bcea" />
</g>
</svg>