<?xml version="1.0" encoding="UTF-8" standalone="no"?>
<svg
   xmlns:dc="http://purl.org/dc/elements/1.1/"
   xmlns:cc="http://creativecommons.org/ns#"
   xmlns:rdf="http://www.w3.org/1999/02/22-rdf-syntax-ns#"
   xmlns:svg="http://www.w3.org/2000/svg"
   xmlns="http://www.w3.org/2000/svg"
   xmlns:sodipodi="http://sodipodi.sourceforge.net/DTD/sodipodi-0.dtd"
   xmlns:inkscape="http://www.inkscape.org/namespaces/inkscape"
   viewBox="0 0 245.672 111.88014"
   height="111.88013"
   width="245.672"
   xml:space="preserve"
   id="svg2"
   version="1.1"
   sodipodi:docname="CZ.NIC-pozitiv_RGB.svg"
   inkscape:version="0.92.3 (2405546, 2018-03-11)"><sodipodi:namedview
     pagecolor="#ffffff"
     bordercolor="#666666"
     borderopacity="1"
     objecttolerance="10"
     gridtolerance="10"
     guidetolerance="10"
     inkscape:pageopacity="0"
     inkscape:pageshadow="2"
     inkscape:window-width="1914"
     inkscape:window-height="1052"
     id="namedview21"
     showgrid="false"
     fit-margin-top="30"
     fit-margin-left="0"
     fit-margin-right="0"
     fit-margin-bottom="25"
     inkscape:zoom="3.1850825"
     inkscape:cx="73.441698"
     inkscape:cy="36.292117"
     inkscape:window-x="0"
     inkscape:window-y="0"
     inkscape:window-maximized="0"
     inkscape:current-layer="svg2" /><metadata
     id="metadata8"><rdf:RDF><cc:Work
         rdf:about=""><dc:format>image/svg+xml</dc:format><dc:type
           rdf:resource="http://purl.org/dc/dcmitype/StillImage" /><dc:title></dc:title></cc:Work></rdf:RDF></metadata><defs
     id="defs6"><clipPath
       id="clipPath18"
       clipPathUnits="userSpaceOnUse"><path
         id="path16"
         d="M 0,419.527 H 595.275 V 0 H 0 Z"
         inkscape:connector-curvature="0" /></clipPath></defs><g
     transform="matrix(1.3333333,0,0,-1.3333333,-274.01413,338.80853)"
     id="g10"><g
       id="g12"><g
         clip-path="url(#clipPath18)"
         id="g14"><g
           transform="translate(376.6846,203.1201)"
           id="g20"><path
             id="path22"
             style="fill:#003893;fill-opacity:1;fill-rule:nonzero;stroke:none"
             d="m 0,0 c -5.234,0 -8.502,4.213 -8.502,9.23 0,5.014 3.34,9.303 8.356,9.303 2.396,0 5.017,-1.166 6.322,-2.91 l 6.904,7.994 c -2.836,2.908 -8.281,4.869 -13.443,4.869 -11.262,0 -20.205,-7.485 -20.205,-19.256 0,-11.996 8.871,-19.263 20.279,-19.263 5.305,0 10.391,1.744 13.369,4.656 L 6.469,2.686 C 5.016,0.941 2.395,0 0,0"
             inkscape:connector-curvature="0" /></g><path
           id="path24"
           style="fill:#003893;fill-opacity:1;fill-rule:nonzero;stroke:none"
           d="m 338.657,194.253 h 11.924 v 36.191 h -11.924 z"
           inkscape:connector-curvature="0" /><g
           transform="translate(225.9326,221.6494)"
           id="g26"><path
             id="path28"
             style="fill:#003893;fill-opacity:1;fill-rule:nonzero;stroke:none"
             d="m 0,0 c 2.4,0 5.014,-1.162 6.324,-2.903 l 6.903,7.991 c -2.834,2.908 -8.286,4.869 -13.444,4.869 -11.267,0 -20.205,-7.485 -20.205,-19.26 0,-11.986 8.865,-19.256 20.277,-19.256 5.303,0 10.393,1.746 13.372,4.649 l -6.614,8.07 c -1.455,-1.744 -4.068,-2.691 -6.468,-2.691 -5.229,0 -8.502,4.217 -8.502,9.228 C -8.357,-4.285 -5.012,0 0,0"
             inkscape:connector-curvature="0" /></g><g
           transform="translate(318.7549,231.4619)"
           id="g30"><path
             id="path32"
             style="fill:#003893;fill-opacity:1;fill-rule:nonzero;stroke:none"
             d="m 0,0 c -5.014,0 -9.154,-2.834 -10.826,-6.03 h -0.143 v 5.012 h -11.558 v -20.684 c 2.657,-2.823 4.326,-6.631 4.326,-10.895 0,-1.612 -0.244,-3.157 -0.682,-4.612 h 8.346 v 19.621 c 0,4.145 2.18,7.779 6.396,7.779 4.289,0 5.375,-3.634 5.375,-7.63 v -19.77 h 12.002 v 22.383 C 13.236,-7.558 9.746,0 0,0"
             inkscape:connector-curvature="0" /></g><g
           transform="translate(268.8057,198.7061)"
           id="g34"><path
             id="path36"
             style="fill:#003893;fill-opacity:1;fill-rule:nonzero;stroke:none"
             d="m 0,0 c 0,1.658 0.262,3.264 0.743,4.777 h -13.159 l 17.52,18.022 v 8.939 H -25.785 V 22.582 H -9.432 L -26.436,4.85 V -4.453 H 0.656 C 0.237,-3.049 0,-1.56 0,0"
             inkscape:connector-curvature="0" /></g><g
           transform="translate(284.7773,188.9463)"
           id="g38"><path
             id="path40"
             style="fill:#ce1126;fill-opacity:1;fill-rule:nonzero;stroke:none"
             d="m 0,0 c -5.405,0 -10.021,4.247 -10.021,9.821 0,5.466 4.521,10.022 10.021,10.022 5.302,0 9.823,-4.356 9.823,-9.923 C 9.823,4.349 5.302,0 0,0"
             inkscape:connector-curvature="0" /></g></g></g></g></svg>