<svg id="Ebene_1" data-name="Ebene 1" xmlns="http://www.w3.org/2000/svg" xmlns:xlink="http://www.w3.org/1999/xlink" viewBox="0 0 419.96 312.32"><defs><style>.cls-1,.cls-2,.cls-3,.cls-4,.cls-5,.cls-6,.cls-7{opacity:0.66;}.cls-1{fill:url(#Unbenannter_Verlauf_8);}.cls-2{fill:url(#Unbenannter_Verlauf_5);}.cls-3{fill:url(#Unbenannter_Verlauf_7);}.cls-4{fill:url(#Unbenannter_Verlauf_5-3);}.cls-5{fill:url(#Unbenannter_Verlauf_11);}.cls-6{fill:url(#Unbenannter_Verlauf_10);}.cls-7{fill:url(#Unbenannter_Verlauf_11-7);}.cls-8{fill:#fff;}.cls-9{fill:#666;}</style><radialGradient id="Unbenannter_Verlauf_8" cx="187.05" cy="57.95" r="265.63" gradientUnits="userSpaceOnUse"><stop offset="0" stop-color="#f15a24"/><stop offset="1" stop-color="#fcee21"/></radialGradient><radialGradient id="Unbenannter_Verlauf_5" cx="238.84" cy="133.58" r="265.63" gradientUnits="userSpaceOnUse"><stop offset="0" stop-color="#f15a24"/><stop offset="1" stop-color="#ed1c24"/></radialGradient><radialGradient id="Unbenannter_Verlauf_7" cx="361.52" cy="-171.14" r="205.98" gradientTransform="translate(153.58 564.45) rotate(-78.6)" gradientUnits="userSpaceOnUse"><stop offset="0" stop-color="#c1272d"/><stop offset="1" stop-color="#ed1c24"/></radialGradient><radialGradient id="Unbenannter_Verlauf_5-3" cx="636.87" cy="93.25" r="265.63" gradientTransform="translate(903.09 338.92) rotate(180)" xlink:href="#Unbenannter_Verlauf_5"/><radialGradient id="Unbenannter_Verlauf_11" cx="585.08" cy="17.62" r="265.63" gradientTransform="translate(903.09 338.92) rotate(180)" gradientUnits="userSpaceOnUse"><stop offset="0" stop-color="#f15a24"/><stop offset="1" stop-color="#2e3192"/></radialGradient><radialGradient id="Unbenannter_Verlauf_10" cx="479.76" cy="211.05" r="205.98" gradientTransform="translate(749.51 -225.54) rotate(101.4)" gradientUnits="userSpaceOnUse"><stop offset="0" stop-color="#9e005d"/><stop offset="1" stop-color="#c1272d"/></radialGradient><radialGradient id="Unbenannter_Verlauf_11-7" cx="585.08" cy="17.74" r="265.48" xlink:href="#Unbenannter_Verlauf_11"/></defs><title>DNS_Flag</title><path class="cls-1" d="M121.92,129.54a121.47,121.47,0,0,1,72.81-24.1c.91,0,1.81,0,2.72,0q1.74-4.25,3.79-8.32C158.58,103,120,116.57,87.9,135.86A94,94,0,0,1,121.92,129.54Z" transform="translate(-40.02 -93.84)"/><path class="cls-2" d="M121.92,129.54a94.77,94.77,0,0,1,66.52,27.37c-.07-1.69-.11-3.39-.11-5.1a121.47,121.47,0,0,1,9.12-46.34c-.91,0-1.81,0-2.72,0A121.47,121.47,0,0,0,121.92,129.54Z" transform="translate(-40.02 -93.84)"/><path class="cls-1" d="M121.92,129.54a94.77,94.77,0,0,1,66.52,27.37c-.07-1.69-.11-3.39-.11-5.1a121.47,121.47,0,0,1,9.12-46.34c-.91,0-1.81,0-2.72,0A121.47,121.47,0,0,0,121.92,129.54Z" transform="translate(-40.02 -93.84)"/><path class="cls-1" d="M121.92,129.54a94,94,0,0,0-34,6.32A239.64,239.64,0,0,0,67,149.92l16.83,26.62A122.41,122.41,0,0,1,121.92,129.54Z" transform="translate(-40.02 -93.84)"/><path class="cls-3" d="M121.92,129.54a94,94,0,0,0-34,6.32A239.64,239.64,0,0,0,67,149.92l16.83,26.62A122.41,122.41,0,0,1,121.92,129.54Z" transform="translate(-40.02 -93.84)"/><path class="cls-2" d="M140.6,131.42a94,94,0,0,0-18.68-1.88,122.41,122.41,0,0,0-38.09,47l46.15,73c16.8-15.24,43.43-28.16,76-34.47a121.33,121.33,0,0,1-17.54-58.14A94.1,94.1,0,0,0,140.6,131.42Z" transform="translate(-40.02 -93.84)"/><path class="cls-1" d="M140.6,131.42a94,94,0,0,0-18.68-1.88,122.41,122.41,0,0,0-38.09,47l46.15,73c16.8-15.24,43.43-28.16,76-34.47a121.33,121.33,0,0,1-17.54-58.14A94.1,94.1,0,0,0,140.6,131.42Z" transform="translate(-40.02 -93.84)"/><path class="cls-3" d="M140.6,131.42a94,94,0,0,0-18.68-1.88,122.41,122.41,0,0,0-38.09,47l46.15,73c16.8-15.24,43.43-28.16,76-34.47a121.33,121.33,0,0,1-17.54-58.14A94.1,94.1,0,0,0,140.6,131.42Z" transform="translate(-40.02 -93.84)"/><path class="cls-4" d="M278.43,138.68A122.19,122.19,0,0,1,292.81,127a94.07,94.07,0,0,1,14.51-28.51,353.16,353.16,0,0,0-57-4.67,121.24,121.24,0,0,1,11.83,31.89A123.23,123.23,0,0,1,278.43,138.68Z" transform="translate(-40.02 -93.84)"/><path class="cls-2" d="M264.94,151.81c0,.64,0,1.27,0,1.91a122.89,122.89,0,0,1,13.52-15,123.23,123.23,0,0,0-16.29-12.94A123,123,0,0,1,264.94,151.81Z" transform="translate(-40.02 -93.84)"/><path class="cls-4" d="M264.94,151.81c0,.64,0,1.27,0,1.91a122.89,122.89,0,0,1,13.52-15,123.23,123.23,0,0,0-16.29-12.94A123,123,0,0,1,264.94,151.81Z" transform="translate(-40.02 -93.84)"/><path class="cls-1" d="M262.14,125.74a121.24,121.24,0,0,0-11.83-31.89h-.53a355.73,355.73,0,0,0-48.54,3.31q-2.06,4.08-3.79,8.32A121.37,121.37,0,0,1,262.14,125.74Z" transform="translate(-40.02 -93.84)"/><path class="cls-4" d="M262.14,125.74a121.24,121.24,0,0,0-11.83-31.89h-.53a355.73,355.73,0,0,0-48.54,3.31q-2.06,4.08-3.79,8.32A121.37,121.37,0,0,1,262.14,125.74Z" transform="translate(-40.02 -93.84)"/><path class="cls-2" d="M264.94,151.81a123,123,0,0,0-2.8-26.07,121.37,121.37,0,0,0-64.69-20.27,121.47,121.47,0,0,0-9.12,46.34c0,1.71,0,3.41.11,5.1a94.88,94.88,0,0,1,27.46,56.45,231.67,231.67,0,0,1,25.32-2.29,121.43,121.43,0,0,1,23.69-57.35C264.92,153.08,264.94,152.45,264.94,151.81Z" transform="translate(-40.02 -93.84)"/><path class="cls-1" d="M264.94,151.81a123,123,0,0,0-2.8-26.07,121.37,121.37,0,0,0-64.69-20.27,121.47,121.47,0,0,0-9.12,46.34c0,1.71,0,3.41.11,5.1a94.88,94.88,0,0,1,27.46,56.45,231.67,231.67,0,0,1,25.32-2.29,121.43,121.43,0,0,1,23.69-57.35C264.92,153.08,264.94,152.45,264.94,151.81Z" transform="translate(-40.02 -93.84)"/><path class="cls-4" d="M264.94,151.81a123,123,0,0,0-2.8-26.07,121.37,121.37,0,0,0-64.69-20.27,121.47,121.47,0,0,0-9.12,46.34c0,1.71,0,3.41.11,5.1a94.88,94.88,0,0,1,27.46,56.45,231.67,231.67,0,0,1,25.32-2.29,121.43,121.43,0,0,1,23.69-57.35C264.92,153.08,264.94,152.45,264.94,151.81Z" transform="translate(-40.02 -93.84)"/><path class="cls-2" d="M188.44,156.91A121.33,121.33,0,0,0,206,215.05c3.25-.63,6.55-1.2,9.92-1.69A94.88,94.88,0,0,0,188.44,156.91Z" transform="translate(-40.02 -93.84)"/><path class="cls-1" d="M188.44,156.91A121.33,121.33,0,0,0,206,215.05c3.25-.63,6.55-1.2,9.92-1.69A94.88,94.88,0,0,0,188.44,156.91Z" transform="translate(-40.02 -93.84)"/><path class="cls-3" d="M188.44,156.91A121.33,121.33,0,0,0,206,215.05c3.25-.63,6.55-1.2,9.92-1.69A94.88,94.88,0,0,0,188.44,156.91Z" transform="translate(-40.02 -93.84)"/><path class="cls-4" d="M188.44,156.91A121.33,121.33,0,0,0,206,215.05c3.25-.63,6.55-1.2,9.92-1.69A94.88,94.88,0,0,0,188.44,156.91Z" transform="translate(-40.02 -93.84)"/><path class="cls-5" d="M457.66,291.32s6.28-41.75-1.83-68.77c-.53-1.78-1-3.45-1.52-5.07a94.71,94.71,0,0,1-71.17,32.23,121.6,121.6,0,0,1-27.54,15.42c10.12,10.08,30.27,31.25,38.94,48.05,16.95,32.86,12.2,19.52,12.2,19.52s23.59-38.59,14.24-80C447.36,272.53,457.66,291.32,457.66,291.32Z" transform="translate(-40.02 -93.84)"/><path class="cls-4" d="M288.72,149.65A95.14,95.14,0,0,1,292.81,127a122.19,122.19,0,0,0-14.38,11.65A122.71,122.71,0,0,1,288.72,149.65Z" transform="translate(-40.02 -93.84)"/><path class="cls-5" d="M288.72,149.65A95.14,95.14,0,0,1,292.81,127a122.19,122.19,0,0,0-14.38,11.65A122.71,122.71,0,0,1,288.72,149.65Z" transform="translate(-40.02 -93.84)"/><path class="cls-4" d="M364.46,247.83c-1.49-.3-3-.64-4.44-1l-10.45,12.44s2.36,2.21,6,5.87a121.6,121.6,0,0,0,27.54-15.42A95.54,95.54,0,0,1,364.46,247.83Z" transform="translate(-40.02 -93.84)"/><path class="cls-5" d="M364.46,247.83c-1.49-.3-3-.64-4.44-1l-10.45,12.44s2.36,2.21,6,5.87a121.6,121.6,0,0,0,27.54-15.42A95.54,95.54,0,0,1,364.46,247.83Z" transform="translate(-40.02 -93.84)"/><path class="cls-2" d="M288.72,149.65a122.71,122.71,0,0,0-10.29-11,122.89,122.89,0,0,0-13.52,15,121.36,121.36,0,0,1-15.23,57.19h.1a222.3,222.3,0,0,1,64.81,9.36A94.54,94.54,0,0,1,288.72,149.65Z" transform="translate(-40.02 -93.84)"/><path class="cls-4" d="M288.72,149.65a122.71,122.71,0,0,0-10.29-11,122.89,122.89,0,0,0-13.52,15,121.36,121.36,0,0,1-15.23,57.19h.1a222.3,222.3,0,0,1,64.81,9.36A94.54,94.54,0,0,1,288.72,149.65Z" transform="translate(-40.02 -93.84)"/><path class="cls-5" d="M288.72,149.65a122.71,122.71,0,0,0-10.29-11,122.89,122.89,0,0,0-13.52,15,121.36,121.36,0,0,1-15.23,57.19h.1a222.3,222.3,0,0,1,64.81,9.36A94.54,94.54,0,0,1,288.72,149.65Z" transform="translate(-40.02 -93.84)"/><path class="cls-2" d="M241.22,211.07c2.79-.1,5.61-.16,8.46-.16a121.36,121.36,0,0,0,15.23-57.19A121.43,121.43,0,0,0,241.22,211.07Z" transform="translate(-40.02 -93.84)"/><path class="cls-1" d="M241.22,211.07c2.79-.1,5.61-.16,8.46-.16a121.36,121.36,0,0,0,15.23-57.19A121.43,121.43,0,0,0,241.22,211.07Z" transform="translate(-40.02 -93.84)"/><path class="cls-4" d="M241.22,211.07c2.79-.1,5.61-.16,8.46-.16a121.36,121.36,0,0,0,15.23-57.19A121.43,121.43,0,0,0,241.22,211.07Z" transform="translate(-40.02 -93.84)"/><path class="cls-5" d="M241.22,211.07c2.79-.1,5.61-.16,8.46-.16a121.36,121.36,0,0,0,15.23-57.19A121.43,121.43,0,0,0,241.22,211.07Z" transform="translate(-40.02 -93.84)"/><path class="cls-4" d="M344,106.77a325.43,325.43,0,0,0-36.7-8.25A94.07,94.07,0,0,0,292.81,127,121.32,121.32,0,0,1,344,106.77Z" transform="translate(-40.02 -93.84)"/><path class="cls-6" d="M344,106.77a325.43,325.43,0,0,0-36.7-8.25A94.07,94.07,0,0,0,292.81,127,121.32,121.32,0,0,1,344,106.77Z" transform="translate(-40.02 -93.84)"/><path class="cls-5" d="M383.14,249.71a94.71,94.71,0,0,0,71.17-32.23c-4.27-14.1-7.08-22.33-13.58-31.41l14.15-16.85a217.66,217.66,0,0,0-22.58-19.46c0,.68,0,1.36,0,2.05A121.83,121.83,0,0,1,383.14,249.71Z" transform="translate(-40.02 -93.84)"/><path class="cls-6" d="M383.14,249.71a94.71,94.71,0,0,0,71.17-32.23c-4.27-14.1-7.08-22.33-13.58-31.41l14.15-16.85a217.66,217.66,0,0,0-22.58-19.46c0,.68,0,1.36,0,2.05A121.83,121.83,0,0,1,383.14,249.71Z" transform="translate(-40.02 -93.84)"/><path class="cls-4" d="M383.14,249.71a121.83,121.83,0,0,0,49.19-97.9c0-.69,0-1.37,0-2.05-24.74-18.61-54.7-33.33-88.28-43A121.32,121.32,0,0,0,292.81,127a95.14,95.14,0,0,0-4.09,22.62,121.49,121.49,0,0,1,27.84,71.24c18.33,5.83,34,13.81,46,22.91l-2.53,3c1.46.37,3,.71,4.44,1A95.54,95.54,0,0,0,383.14,249.71Z" transform="translate(-40.02 -93.84)"/><path class="cls-7" d="M383.14,249.71a121.83,121.83,0,0,0,49.19-97.9c0-.69,0-1.37,0-2.05-24.74-18.61-54.7-33.33-88.28-43A121.32,121.32,0,0,0,292.81,127a95.14,95.14,0,0,0-4.09,22.62,121.49,121.49,0,0,1,27.84,71.24c18.33,5.83,34,13.81,46,22.91l-2.53,3c1.46.37,3,.71,4.44,1A95.54,95.54,0,0,0,383.14,249.71Z" transform="translate(-40.02 -93.84)"/><path class="cls-6" d="M383.14,249.71a121.83,121.83,0,0,0,49.19-97.9c0-.69,0-1.37,0-2.05-24.74-18.61-54.7-33.33-88.28-43A121.32,121.32,0,0,0,292.81,127a95.14,95.14,0,0,0-4.09,22.62,121.49,121.49,0,0,1,27.84,71.24c18.33,5.83,34,13.81,46,22.91l-2.53,3c1.46.37,3,.71,4.44,1A95.54,95.54,0,0,0,383.14,249.71Z" transform="translate(-40.02 -93.84)"/><path class="cls-2" d="M314.59,220.27l2,.62a121.49,121.49,0,0,0-27.84-71.24A94.54,94.54,0,0,0,314.59,220.27Z" transform="translate(-40.02 -93.84)"/><path class="cls-4" d="M314.59,220.27l2,.62a121.49,121.49,0,0,0-27.84-71.24A94.54,94.54,0,0,0,314.59,220.27Z" transform="translate(-40.02 -93.84)"/><path class="cls-5" d="M314.59,220.27l2,.62a121.49,121.49,0,0,0-27.84-71.24A94.54,94.54,0,0,0,314.59,220.27Z" transform="translate(-40.02 -93.84)"/><path class="cls-6" d="M314.59,220.27l2,.62a121.49,121.49,0,0,0-27.84-71.24A94.54,94.54,0,0,0,314.59,220.27Z" transform="translate(-40.02 -93.84)"/><path class="cls-8" d="M181.24,123.72a23,23,0,0,1,13.69,5.6,31.08,31.08,0,0,1,7.61,9.65,54.28,54.28,0,0,1,4.15,10.83q3.45,13.44.45,24.16-4.09,14.46-19.38,18.39l-29.06,7.48-17.33-67.42,29.06-7.47A36.8,36.8,0,0,1,181.24,123.72ZM158.05,140.6l11.31,44,13-3.34q10-2.56,11.4-13.42a35.7,35.7,0,0,0-1.15-13.4q-2.66-10.29-7.29-15t-14.27-2.21Z" transform="translate(-40.02 -93.84)"/><path class="cls-8" d="M225.32,115.59l15.23.64,25.56,49.66,2-48.49,13.55.57-2.93,69.54-14.53-.61L238,136.36l-2.07,49.35-13.54-.57Z" transform="translate(-40.02 -93.84)"/><path class="cls-8" d="M305,172.76c-.61,3.15-.56,5.69.18,7.6q2,5.25,10.31,8.11a26.78,26.78,0,0,0,8.43,1.72q6.58,0,8.52-5.61a5.93,5.93,0,0,0-1.14-6q-2.28-2.75-8.07-6.24l-6.58-4q-9.7-6-12.69-10-5.07-6.85-1.73-16.53a20,20,0,0,1,11.58-12.44q8.52-3.6,21.13.75,10.53,3.65,16.06,11.72t2.26,18.69l-13.21-4.56q1.68-6.06-2.39-10.27a19.32,19.32,0,0,0-7.62-4.48q-5.44-1.87-9.44-.86a7.16,7.16,0,0,0-5.31,4.86,6,6,0,0,0,1.38,6.37q1.66,1.88,7.8,5.74L335.08,164q7,4.41,9.73,8.71,4.28,6.68,1.24,15.47A20,20,0,0,1,333.9,200.7q-9,3.56-21.75-.84-13-4.49-18.4-12.93t-1.87-18.71Z" transform="translate(-40.02 -93.84)"/><polygon points="0 72.47 178.66 312.31 18.77 59.47 0 72.47"/><path class="cls-9" d="M176.91,245.73h29.2v7.2h-20.7v9.41h18.14v7.12H185.41v17.16h-8.5Z" transform="translate(-40.02 -93.84)"/><path class="cls-9" d="M211.66,245.68h8.56v33.58h20.45v7.36h-29Z" transform="translate(-40.02 -93.84)"/><path class="cls-9" d="M258.12,245.68h9.68l14.49,40.94H273l-2.7-8.41H255.23l-2.77,8.41h-9Zm-.56,25.47h10.49L262.88,255Z" transform="translate(-40.02 -93.84)"/><path class="cls-9" d="M315,258.45a8,8,0,0,0-4.75-5.86,11.69,11.69,0,0,0-4.7-.91,10.19,10.19,0,0,0-8.12,3.73q-3.18,3.72-3.18,11.21t3.44,10.67a11.34,11.34,0,0,0,7.84,3.14,10.17,10.17,0,0,0,7.05-2.47,10.67,10.67,0,0,0,3.39-6.48h-9.47v-6.83h17.05v22h-5.66l-.86-5.11a19.34,19.34,0,0,1-4.45,4.09,15.63,15.63,0,0,1-8.33,2.08A17.3,17.3,0,0,1,291,282q-5.43-5.66-5.42-15.49T291,250.62q5.47-6,14.47-6,7.81,0,12.55,4a14.78,14.78,0,0,1,5.43,9.87Z" transform="translate(-40.02 -93.84)"/><path class="cls-9" d="M221.38,314.83a13.58,13.58,0,0,1,7,5.2,18.18,18.18,0,0,1,2.91,6.61,31.65,31.65,0,0,1,.78,6.78,27.17,27.17,0,0,1-3.28,13.83q-4.44,7.65-13.73,7.64H197.39V314H215A21.56,21.56,0,0,1,221.38,314.83Zm-15.69,6.23v26.72h7.9q6.07,0,8.46-6a21.1,21.1,0,0,0,1.31-7.81c0-4.17-.66-7.36-2-9.6s-3.91-3.34-7.81-3.34Z" transform="translate(-40.02 -93.84)"/><path class="cls-9" d="M250.18,314h9.68l14.49,40.94h-9.28l-2.7-8.42H247.29l-2.78,8.42h-8.95Zm-.56,25.47H260.1l-5.17-16.11Z" transform="translate(-40.02 -93.84)"/><path class="cls-9" d="M297.7,314h9.69L293.7,339.54v15.35h-8.56V339.54L271,314h10.08l8.51,17.83Z" transform="translate(-40.02 -93.84)"/></svg>