<?xml version="1.0" encoding="UTF-8"?>
<svg width="460px" height="120px" viewBox="0 0 460 120" version="1.1" xmlns="http://www.w3.org/2000/svg" xmlns:xlink="http://www.w3.org/1999/xlink">
    <!-- Generator: Sketch 52.6 (67491) - http://www.bohemiancoding.com/sketch -->
    <title>blue</title>
    <desc>Created with Sketch.</desc>
    <g id="blue" stroke="none" stroke-width="1" fill="none" fill-rule="evenodd">
        <path d="M48.5310493,13 C46.3747323,13 44.2184154,13.1137371 42.1755889,13.5686854 L42.1755889,34.7237814 C39.2248394,33.5864106 35.8201285,33.0177253 31.2805139,33.0177253 C15.1648822,33.0177253 2,44.0502216 2,61.7932053 C2,79.9911374 14.0299786,90 31.7344754,90 C40.4732334,90 49.4389722,87.6115214 55,84.6543575 L55,13.5686854 C52.8436831,13.1137371 50.5738758,13 48.5310493,13 L48.5310493,13 Z M32.3807531,79.9855192 C22.665272,79.9855192 16,73.266446 16,62.4927596 C16,51.8349193 23.1171548,45 32.6066946,45 C36.4476987,45 39.9497908,45.4633844 43,47.4327679 L43,78.2478279 C39.6108787,79.5221349 36.1087866,80.1013653 32.3807531,79.9855192 L32.3807531,79.9855192 Z M95.8993289,33 C84.261745,33 74.7919463,37.5436105 70,41.5192698 L70,88.4320487 C72.1677852,88.8864097 74.3355705,89 76.3892617,89 C78.557047,89 80.8389262,88.8864097 82.8926174,88.4320487 L82.8926174,47.7667343 C85.4026846,46.2900609 89.852349,44.8133874 94.8724832,44.8133874 C103.201342,44.8133874 107.993289,48.5618661 107.993289,58.4442191 L107.993289,88.4320487 C110.275168,88.8864097 112.328859,89 114.496644,89 C116.550336,89 118.832215,88.8864097 121,88.4320487 L121,55.3772819 C121,42.9959432 113.355705,33 95.8993289,33 L95.8993289,33 Z M154.427861,90 C169.303483,90 178,83.2007952 178,71.9821074 C178,61.3300199 169.41791,57.3638171 157.631841,55.5506958 C148.363184,54.0775348 145.960199,52.3777336 145.960199,48.8648111 C145.960199,45.4652087 148.935323,43.3121272 155.800995,43.3121272 C162.323383,43.3121272 167.930348,45.2385686 171.706468,47.3916501 C174.338308,45.3518887 176.054726,42.1789264 176.626866,38.2127237 C173.079602,35.7196819 166.099502,33 156.258706,33 C142.527363,33 133.487562,39.7992048 133.487562,49.7713718 C133.487562,61.1033797 142.641791,64.6163022 152.253731,66.0894632 C161.9801,67.5626243 165.069652,69.6023857 165.069652,73.2286282 C165.069652,76.8548708 162.323383,79.6878728 154.656716,79.6878728 C146.074627,79.6878728 141.268657,76.7415507 137.950249,74.361829 C135.20398,76.0616302 133.029851,79.1212724 132,83.2007952 C135.089552,85.8071571 142.298507,90 154.427861,90 L154.427861,90 Z M195.616438,27 C200.157534,27 204,23.2222222 204,18.5 C204,13.7777778 200.157534,10 195.616438,10 C190.842466,10 187,13.7777778 187,18.5 C187,23.2222222 190.842466,27 195.616438,27 L195.616438,27 Z M195.557522,89 C197.743363,89 199.929204,88.8861284 202,88.4306418 L202,34.5693582 C199.929204,34.1138716 197.628319,34 195.557522,34 C193.371681,34 191.185841,34.1138716 189,34.5693582 L189,88.4306418 C191.185841,88.8861284 193.486726,89 195.557522,89 L195.557522,89 Z M279.136729,33 C271.758713,33 265.072386,35.8397566 260.576408,39.2474645 C256.541555,35.3853955 250.546917,33 242.707775,33 C231.294906,33 221.380697,37.7707911 217,41.5192698 L217,88.4320487 C219.190349,88.8864097 221.380697,89 223.455764,89 C225.646113,89 227.951743,88.8864097 230.02681,88.4320487 L230.02681,47.7667343 C232.908847,46.0628803 236.9437,44.8133874 241.209115,44.8133874 C250.085791,44.8133874 253.428954,50.3793103 253.428954,58.1034483 L253.428954,88.4320487 C255.619303,88.8864097 257.809651,89 260.115282,89 C262.190349,89 264.495979,88.8864097 266.571046,88.4320487 L266.571046,54.2413793 C266.571046,52.5375254 266.340483,50.8336714 265.994638,49.2434077 C268.646113,47.0851927 272.335121,44.8133874 277.63807,44.8133874 C286.514745,44.8133874 289.97319,50.3793103 289.97319,58.1034483 L289.97319,88.4320487 C292.048257,88.8864097 294.238606,89 296.544236,89 C298.619303,89 300.924933,88.8864097 303,88.4320487 L303,54.2413793 C303,42.5415822 294.930295,33 279.136729,33 L279.136729,33 Z M340.997854,33 C330.761803,33 322.23176,36.9807976 317,41.3028065 L317,109.431315 C319.274678,109.886263 321.321888,110 323.482833,110 C325.643777,110 327.804721,109.886263 329.851931,109.431315 L329.851931,88.5036928 C333.263948,89.6410635 336.903433,90.0960118 341.45279,90.0960118 C356.465665,90.0960118 370,79.5184638 370,61.3205318 C370,42.6676514 357.48927,33 340.997854,33 L340.997854,33 Z M338.619247,79 C334.439331,79 331.050209,78.3131313 328,76.8249158 L328,47.6329966 C331.276151,45.8013468 334.778243,45 338.506276,45 C348.334728,45 355,51.2962963 355,61.7138047 C355,72.4747475 348.334728,79 338.619247,79 L338.619247,79 Z M388,89 C390.333333,89 392.789474,88.8858859 395,88.4294294 L395,13.5705706 C392.666667,13.1141141 390.210526,13 387.877193,13 C385.54386,13 383.210526,13.1141141 381,13.5705706 L381,88.4294294 C383.45614,88.8858859 385.789474,89 388,89 L388,89 Z M458,57.2988048 C458,42.8784861 447.714286,33 433.2,33 C417.771429,33 406,45.0358566 406,61.7270916 C406,79.3266932 417.657143,90 433.885714,90 C444.742857,90 451.828571,86.0258964 456.4,82.3924303 C455.942857,79.0996016 453.657143,75.4661355 450.8,73.6494024 C447.257143,76.1474104 442.685714,79.2131474 434.8,79.2131474 C425.771429,79.2131474 420.285714,73.7629482 419.257143,64.9063745 L457.542857,64.9063745 C457.885714,61.9541833 458,60.1374502 458,57.2988048 L458,57.2988048 Z M419,57 C419.9163,49.5877193 424.84141,44 432.859031,44 C441.678414,44.1140351 445,50.6140351 445,57 L419,57 Z" id="dnsimple-copy" fill="#1A5EC6"></path>
    </g>
</svg>