<svg width="106" height="35" viewBox="0 0 106 35" xmlns="http://www.w3.org/2000/svg"><title>dnsimple-logo-app</title><path d="M11.25 5.675c-.475 0-.95.025-1.4.125v4.65c-.65-.25-1.4-.375-2.4-.375C3.9 10.075 1 12.5 1 16.4c0 4 2.65 6.2 6.55 6.2 1.925 0 3.9-.525 5.125-1.175V5.8c-.475-.1-.975-.125-1.425-.125zM7.5 20.125c-2.15 0-3.625-1.45-3.625-3.775 0-2.3 1.575-3.775 3.675-3.775.85 0 1.625.1 2.3.525v6.65c-.75.275-1.525.4-2.35.375zm13.975-10.1c-2.55 0-4.625 1-5.675 1.875v10.325c.475.1.95.125 1.4.125.475 0 .975-.025 1.425-.125v-8.95c.55-.325 1.525-.65 2.625-.65 1.825 0 2.875.825 2.875 3v6.6c.5.1.95.125 1.425.125.45 0 .95-.025 1.425-.125V14.95c0-2.725-1.675-4.925-5.5-4.925zm12.675 12.6c3.25 0 5.15-1.5 5.15-3.975 0-2.35-1.875-3.225-4.45-3.625-2.025-.325-2.55-.7-2.55-1.475 0-.75.65-1.225 2.15-1.225 1.425 0 2.65.425 3.475.9.575-.45.95-1.15 1.075-2.025-.775-.55-2.3-1.15-4.45-1.15-3 0-4.975 1.5-4.975 3.7 0 2.5 2 3.275 4.1 3.6 2.125.325 2.8.775 2.8 1.575 0 .8-.6 1.425-2.275 1.425-1.875 0-2.925-.65-3.65-1.175-.6.375-1.075 1.05-1.3 1.95.675.575 2.25 1.5 4.9 1.5zM43.25 8.6c.975 0 1.8-.8 1.8-1.8S44.225 5 43.25 5c-1.025 0-1.85.8-1.85 1.8s.825 1.8 1.85 1.8zm0 13.75c.475 0 .95-.025 1.4-.125V10.4c-.45-.1-.95-.125-1.4-.125-.475 0-.95.025-1.425.125v11.825c.475.1.975.125 1.425.125zm18.075-12.325c-1.6 0-3.05.625-4.025 1.375-.875-.85-2.175-1.375-3.875-1.375-2.475 0-4.625 1.05-5.575 1.875v10.325c.475.1.95.125 1.4.125.475 0 .975-.025 1.425-.125v-8.95c.625-.375 1.5-.65 2.425-.65 1.925 0 2.65 1.225 2.65 2.925v6.675c.475.1.95.125 1.45.125.45 0 .95-.025 1.4-.125V14.7c0-.375-.05-.75-.125-1.1.575-.475 1.375-.975 2.525-.975 1.925 0 2.675 1.225 2.675 2.925v6.675c.45.1.925.125 1.425.125.45 0 .95-.025 1.4-.125V14.7c0-2.575-1.75-4.675-5.175-4.675zm13.5.025c-2.25 0-4.125.875-5.275 1.825V26.85c.5.1.95.125 1.425.125.475 0 .95-.025 1.4-.125v-4.6c.75.25 1.55.35 2.55.35 3.3 0 6.275-2.325 6.275-6.325 0-4.1-2.75-6.225-6.375-6.225zm-.1 10.025c-.925 0-1.675-.15-2.35-.475v-6.375c.725-.4 1.5-.575 2.325-.575 2.175 0 3.65 1.375 3.65 3.65 0 2.35-1.475 3.775-3.625 3.775zM85.2 22.35c.475 0 .975-.025 1.425-.125v-16.4c-.475-.1-.975-.125-1.45-.125s-.95.025-1.4.125v16.4c.5.1.975.125 1.425.125zm15.375-6.95c0-3.175-2.25-5.35-5.425-5.35-3.375 0-5.95 2.65-5.95 6.325 0 3.875 2.55 6.225 6.1 6.225 2.375 0 3.925-.875 4.925-1.675-.1-.725-.6-1.525-1.225-1.925-.775.55-1.775 1.225-3.5 1.225-1.975 0-3.175-1.2-3.4-3.15h8.375c.075-.65.1-1.05.1-1.675zm-8.45-.2c.2-1.625 1.275-2.85 3.025-2.85 1.925.025 2.65 1.45 2.65 2.85h-5.675z" fill="#1A5EC6" fill-rule="evenodd"/></svg>
