<?xml version="1.0" encoding="UTF-8" standalone="no"?>
<svg
   xmlns:dc="http://purl.org/dc/elements/1.1/"
   xmlns:cc="http://creativecommons.org/ns#"
   xmlns:rdf="http://www.w3.org/1999/02/22-rdf-syntax-ns#"
   xmlns:svg="http://www.w3.org/2000/svg"
   xmlns="http://www.w3.org/2000/svg"
   height="158.6804"
   width="819.64001"
   version="1.1"
   viewBox="0 0 819.64001 158.6804"
   data-name="Layer 1"
   id="Layer_1">
  <metadata
     id="metadata27">
    <rdf:RDF>
      <cc:Work
         rdf:about="">
        <dc:format>image/svg+xml</dc:format>
        <dc:type
           rdf:resource="http://purl.org/dc/dcmitype/StillImage" />
        <dc:title>FB-Wordmark-RGB-1024</dc:title>
      </cc:Work>
    </rdf:RDF>
  </metadata>
  <defs
     id="defs4">
    <style
       id="style2">.cls-1{fill:#4267b2;}</style>
  </defs>
  <title
     id="title6">FB-Wordmark-RGB-1024</title>
  <path
     style="fill:#4267b2"
     id="path8"
     d="m 64.13,24.850402 c -9.65,0 -12.44,4.28 -12.44,13.72 v 15.66 h 25.74 l -2.58,25.3 H 51.7 V 156.3104 H 20.81 V 79.530402 H 0 v -25.3 h 20.81 v -15.23 c 0,-25.52 10.29,-38.99999995409 39,-38.99999995409 A 146.17,146.17 0 0 1 77.81,1.070402 v 23.81 z"
     class="cls-1" />
  <path
     style="fill:#4267b2"
     id="path10"
     d="m 79.57,102.0504 c 0,-28.519998 13.51,-49.999998 41.82,-49.999998 15.44,0 24.87,7.94 29.38,17.8 v -15.62 h 29.59 V 156.3104 h -29.59 v -15.44 c -4.29,9.87 -13.94,17.59 -29.38,17.59 -28.31,0 -41.82,-21.45 -41.82,-50 z m 30.88,6.87 c 0,15.22 5.57,25.3 19.94,25.3 12.66,0 19.09,-9.22 19.09,-23.8 v -10.25 c 0,-14.579998 -6.43,-23.799998 -19.09,-23.799998 -14.37,0 -19.94,10.08 -19.94,25.299998 z"
     class="cls-1" />
  <path
     style="fill:#4267b2"
     id="path12"
     d="m 244.7,52.080402 c 12,0 23.37,2.58 29.59,6.86 l -6.86,21.88 a 48.6,48.6 0 0 0 -20.59,-4.72 c -16.73,0 -24,9.65 -24,26.169998 v 6 c 0,16.52 7.29,26.17 24,26.17 a 48.6,48.6 0 0 0 20.59,-4.72 l 6.86,21.87 c -6.22,4.29 -17.58,6.87 -29.59,6.87 -36.25,0 -52.76,-19.52 -52.76,-50.83 v -4.72 c 0,-31.309998 16.51,-50.829998 52.76,-50.829998 z"
     class="cls-1" />
  <path
     style="fill:#4267b2"
     id="path14"
     d="m 278.36,109.1704 v -9 c 0,-28.949998 16.51,-47.999998 50.19,-47.999998 31.74,0 45.68,19.3 45.68,47.61 V 116.0804 h -65 c 0.65,13.94 6.87,20.16 24,20.16 11.59,0 23.81,-2.36 32.82,-6.22 l 5.65,21.15 c -8.15,4.3 -24.88,7.51 -39.67,7.51 -39.09,-0.01 -53.67,-19.51 -53.67,-49.51 z m 30.88,-13.299998 h 37.32 v -2.57 c 0,-11.15 -4.5,-20 -18,-20 -13.95,0.01 -19.32,8.81 -19.32,22.53 z"
     class="cls-1" />
  <path
     style="fill:#4267b2"
     id="path16"
     d="m 488.7,108.4904 c 0,28.52 -13.72,50 -42,50 -15.44,0 -26.16,-7.72 -30.45,-17.59 v 15.44 H 387.09 V 2.970402 L 417.97,0.17040205 V 68.370402 c 4.5,-9 14.37,-16.3 28.74,-16.3 28.31,0 42,21.45 42,49.999998 z m -30.88,-7.08 c 0,-14.369998 -5.57,-25.089998 -20.37,-25.089998 -12.66,0 -19.52,9 -19.52,23.59 V 110.6304 c 0,14.58 6.86,23.59 19.52,23.59 14.8,0 20.37,-10.72 20.37,-25.09 z"
     class="cls-1" />
  <path
     style="fill:#4267b2"
     id="path18"
     d="m 499.03,107.8404 v -5.14 c 0,-29.389998 16.73,-50.619998 50.83,-50.619998 34.1,0 50.84,21.23 50.84,50.619998 v 5.14 c 0,29.38 -16.73,50.62 -50.83,50.62 -34.1,0 -50.84,-21.24 -50.84,-50.62 z m 70.78,-7.29 c 0,-13.509998 -5.58,-24.229998 -20,-24.229998 -14.42,0 -19.95,10.72 -19.95,24.229998 v 9.44 c 0,13.51 5.58,24.23 19.95,24.23 14.37,0 20,-10.72 20,-24.23 z"
     class="cls-1" />
  <path
     style="fill:#4267b2"
     id="path20"
     d="m 610.97,107.8404 v -5.14 c 0,-29.389998 16.73,-50.619998 50.83,-50.619998 34.1,0 50.83,21.23 50.83,50.619998 v 5.14 c 0,29.38 -16.73,50.62 -50.83,50.62 -34.1,0 -50.83,-21.24 -50.83,-50.62 z m 70.78,-7.29 c 0,-13.509998 -5.58,-24.229998 -19.95,-24.229998 -14.37,0 -19.94,10.72 -19.94,24.229998 v 9.44 c 0,13.51 5.57,24.23 19.94,24.23 14.37,0 19.95,-10.72 19.95,-24.23 z"
     class="cls-1" />
  <path
     style="fill:#4267b2"
     id="path22"
     d="m 755.09,102.9104 30.45,-48.679998 h 32.81 l -31.95,50.399998 33.24,51.68 h -32.81 l -31.74,-50 v 50 H 724.2 V 2.970402 l 30.89,-2.79999995 z"
     class="cls-1" />
</svg>
