<?xml version="1.0" encoding="UTF-8" standalone="no"?>
<!-- Generator: Adobe Illustrator 19.2.0, SVG Export Plug-In . SVG Version: 6.00 Build 0)  -->

<svg
   xmlns:dc="http://purl.org/dc/elements/1.1/"
   xmlns:cc="http://creativecommons.org/ns#"
   xmlns:rdf="http://www.w3.org/1999/02/22-rdf-syntax-ns#"
   xmlns:svg="http://www.w3.org/2000/svg"
   xmlns="http://www.w3.org/2000/svg"
   xmlns:sodipodi="http://sodipodi.sourceforge.net/DTD/sodipodi-0.dtd"
   xmlns:inkscape="http://www.inkscape.org/namespaces/inkscape"
   version="1.1"
   id="Laag_1"
   x="0px"
   y="0px"
   viewBox="0 0 462.09999 112.2"
   xml:space="preserve"
   inkscape:version="0.91 r13725"
   sodipodi:docname="Logo_NLnet_Labs_cropped.svg"
   width="462.10001"
   height="112.2"><metadata
     id="metadata49"><rdf:RDF><cc:Work
         rdf:about=""><dc:format>image/svg+xml</dc:format><dc:type
           rdf:resource="http://purl.org/dc/dcmitype/StillImage" /><dc:title></dc:title></cc:Work></rdf:RDF></metadata><defs
     id="defs47" /><sodipodi:namedview
     pagecolor="#ffffff"
     bordercolor="#666666"
     borderopacity="1"
     objecttolerance="10"
     gridtolerance="10"
     guidetolerance="10"
     inkscape:pageopacity="0"
     inkscape:pageshadow="2"
     inkscape:window-width="956"
     inkscape:window-height="1137"
     id="namedview45"
     showgrid="false"
     inkscape:zoom="1"
     inkscape:cx="169.8036"
     inkscape:cy="90.694407"
     inkscape:window-x="960"
     inkscape:window-y="30"
     inkscape:window-maximized="0"
     inkscape:current-layer="Laag_1"
     showguides="false"
     fit-margin-top="0"
     fit-margin-left="0"
     fit-margin-right="0"
     fit-margin-bottom="0" /><style
     type="text/css"
     id="style3">
	.st0{fill:#00665E;}
	.st1{fill:#92BD11;}
</style><g
     id="g5"
     transform="translate(-135.90002,-219.6)"><g
       id="g7"><path
         class="st0"
         d="m 295.3,256.5 5,0 0,36.8 -4.5,0 -24.6,-28.3 0,28.3 -4.9,0 0,-36.8 4.3,0 24.8,28.5 0,-28.5 z"
         id="path9"
         inkscape:connector-curvature="0"
         style="fill:#00665e" /><path
         class="st0"
         d="m 310.4,256.5 5.3,0 0,32 16.5,0 0,4.8 -21.8,0 0,-36.8 z"
         id="path11"
         inkscape:connector-curvature="0"
         style="fill:#00665e" /><path
         class="st0"
         d="m 368.1,256.5 5,0 0,36.8 -4.5,0 -24.6,-28.3 0,28.3 -4.9,0 0,-36.8 4.3,0 24.8,28.5 0,-28.5 z"
         id="path13"
         inkscape:connector-curvature="0"
         style="fill:#00665e" /><path
         class="st0"
         d="m 383.1,256.5 20.9,0 0,4.7 -15.6,0 0,11.2 15,0 0,4.7 -15,0 0,11.4 16.1,0 0,4.7 -21.3,0 0,-36.7 z"
         id="path15"
         inkscape:connector-curvature="0"
         style="fill:#00665e" /><path
         class="st0"
         d="m 409.1,256.5 30.7,0 0,4.7 -12.8,0 0,32.1 -5.3,0 0,-32.1 -12.6,0 0,-4.7 z"
         id="path17"
         inkscape:connector-curvature="0"
         style="fill:#00665e" /><path
         class="st0"
         d="m 475.2,293.3 -27.7,0 0,-36.5 11,0 0,27.7 16.7,0 0,8.8 z"
         id="path19"
         inkscape:connector-curvature="0"
         style="fill:#00665e" /><path
         class="st0"
         d="m 523,293.3 -11.3,0 -3,-7.4 -15.8,0 -3,7.4 -11.3,0 16.1,-36.5 12.2,0 16.1,36.5 z m -16.8,-13.8 -5.3,-13.3 -5.4,13.3 10.7,0 z"
         id="path21"
         inkscape:connector-curvature="0"
         style="fill:#00665e" /><path
         class="st0"
         d="m 563.3,282.9 c 0,3.1 -1.1,5.6 -3.2,7.5 -2.1,1.9 -5.2,2.8 -9,2.8 l -21.1,0 0,-36.5 17.6,0 c 2.3,0 4.3,0.2 6,0.7 1.7,0.4 3.1,1 4.1,1.8 1,0.8 1.8,1.7 2.3,2.7 0.5,1 0.8,2.2 0.8,3.4 0,1.3 -0.3,2.6 -0.8,3.7 -0.5,1.1 -1.2,2.1 -2,2.8 -0.8,0.7 -1.6,1.2 -2.4,1.5 2.5,1 4.4,2.2 5.7,3.7 1.3,1.6 2,3.6 2,5.9 z m -12.8,-15.6 c 0,-1.8 -0.6,-2.9 -1.7,-3.5 -1.2,-0.6 -3,-0.9 -5.4,-0.9 l -2.4,0 0,8.7 2.4,0 c 2.5,0 4.3,-0.3 5.4,-0.9 1.1,-0.5 1.7,-1.6 1.7,-3.4 z m 1.7,15.2 c 0,-3.1 -2.3,-4.7 -6.8,-4.7 l -4.4,0 0,9.3 4.5,0 c 4.5,0 6.7,-1.5 6.7,-4.6 z"
         id="path23"
         inkscape:connector-curvature="0"
         style="fill:#00665e" /><path
         class="st0"
         d="m 598,282.7 c 0,2.3 -0.6,4.3 -1.7,5.9 -1.2,1.7 -2.8,2.9 -4.9,3.8 -2.1,0.9 -4.5,1.3 -7.2,1.3 -0.8,0 -1.7,0 -2.8,-0.1 -1.1,-0.1 -2.6,-0.4 -4.4,-0.8 -1.8,-0.4 -3.7,-1.1 -5.7,-1.9 l 0,-8.9 c 1.8,1.1 3.7,2.1 5.4,2.8 1.7,0.7 3.7,1.1 5.7,1.1 1.9,0 3.1,-0.3 3.6,-0.9 0.6,-0.6 0.8,-1.2 0.8,-1.8 0,-1 -0.5,-1.8 -1.4,-2.5 -0.9,-0.7 -2.3,-1.4 -4.1,-2.1 -2,-0.8 -3.8,-1.8 -5.3,-2.7 -1.5,-1 -2.7,-2.2 -3.7,-3.7 -1,-1.5 -1.4,-3.3 -1.4,-5.3 0,-2 0.5,-3.7 1.4,-5.3 1,-1.6 2.4,-2.9 4.4,-3.8 2,-0.9 4.4,-1.4 7.3,-1.4 2,0 3.9,0.2 5.6,0.6 1.7,0.4 3.2,0.8 4.3,1.3 1.1,0.5 1.9,0.9 2.3,1.2 l 0,8.6 c -1.5,-1.1 -3.2,-2 -5,-2.9 -1.8,-0.8 -3.8,-1.3 -5.9,-1.3 -1.4,0 -2.4,0.3 -3,0.8 -0.6,0.5 -0.9,1.2 -0.9,1.9 0,0.7 0.3,1.3 0.9,1.9 0.6,0.5 1.7,1.2 3.3,1.9 2.8,1.3 5.1,2.5 6.7,3.6 1.7,1.1 3,2.3 4,3.6 1,1.3 1.7,3 1.7,5.1 z"
         id="path25"
         inkscape:connector-curvature="0"
         style="fill:#00665e" /></g><g
       id="g27"><path
         class="st0"
         d="m 243.9,245.3 c -3.3,-7.2 -8.2,-13.6 -14.2,-18.7 2.4,6.1 3.6,12.6 3.7,19.3 3.4,-0.6 6.9,-0.8 10.5,-0.6 z"
         id="path29"
         inkscape:connector-curvature="0"
         style="fill:#00665e" /><path
         class="st0"
         d="m 170.1,310.9 c -12.2,0 -23.9,-4 -33.4,-11.4 8.5,19.5 27.9,32.3 49.5,32.3 3.2,0 6.3,-0.3 9.5,-0.8 -5.2,-6.5 -8.5,-14.2 -9.6,-22.5 -5.2,1.6 -10.6,2.4 -16,2.4 z"
         id="path31"
         inkscape:connector-curvature="0"
         style="fill:#00665e" /><path
         class="st1"
         d="m 228.4,254 c -0.7,22.5 -15.3,42.4 -36.6,49.8 1.1,8.3 4.5,16.2 9.9,22.7 24.5,-5.5 42.2,-27.5 42.2,-52.7 0,-7 -1.3,-13.8 -3.9,-20.3 -3.9,-0.4 -7.8,-0.2 -11.6,0.5 z"
         id="path33"
         inkscape:connector-curvature="0"
         style="fill:#92bd11" /><path
         class="st0"
         d="m 189.6,293 c -9,-3.4 -15.4,-12.2 -15.4,-22.4 0,-13.2 10.7,-24 23.9,-24 7.4,0 14.1,3.4 18.5,8.7 3,-1.4 6.3,-2.5 9.7,-3.2 0,-7.8 -1.7,-15.4 -5,-22.4 -9.2,-6.6 -20.1,-10.1 -31.4,-10.1 -29.8,0 -54,24.2 -54,54 0,6 1,11.9 2.9,17.6 9.6,8.6 22.1,13.4 35,13.4 5.3,0 10.6,-0.8 15.7,-2.4 -0.1,-1.5 -0.2,-2.9 -0.2,-4.4 0,-1.5 0.1,-3.2 0.3,-4.8 z"
         id="path35"
         inkscape:connector-curvature="0"
         style="fill:#00665e" /><g
         id="g37"><path
           class="st1"
           d="m 226.2,254.4 c -2.9,0.6 -5.7,1.6 -8.3,2.8 2.6,3.8 4.1,8.5 4.1,13.5 0,0.8 0,1.6 -0.1,2.4 2.6,-5.9 4.1,-12.2 4.3,-18.7 z"
           id="path39"
           inkscape:connector-curvature="0"
           style="fill:#92bd11" /><path
           class="st1"
           d="m 198.1,294.6 c -2.3,0 -4.4,-0.3 -6.5,-0.9 -0.1,1.4 -0.2,2.8 -0.2,4.3 0,1.2 0.1,2.4 0.2,3.7 5.7,-2.1 10.9,-5 15.4,-8.7 -2.7,0.9 -5.7,1.6 -8.9,1.6 z"
           id="path41"
           inkscape:connector-curvature="0"
           style="fill:#92bd11" /></g><circle
         class="st1"
         cx="198.10001"
         cy="270.60001"
         r="15.8"
         id="circle43"
         style="fill:#92bd11" /></g></g></svg>