<?xml version="1.0" encoding="utf-8"?>
<!-- Generator: Adobe Illustrator 18.1.1, SVG Export Plug-In . SVG Version: 6.00 Build 0)  -->
<!DOCTYPE svg PUBLIC "-//W3C//DTD SVG 1.1//EN" "http://www.w3.org/Graphics/SVG/1.1/DTD/svg11.dtd">
<svg version="1.1" id="Ebene_1" xmlns="http://www.w3.org/2000/svg" xmlns:xlink="http://www.w3.org/1999/xlink" x="0px" y="0px"
	 viewBox="0 0 384 88.3" enable-background="new 0 0 384 88.3" xml:space="preserve">
<g>
	<path fill="#666666" d="M108.4,81c0,0.3,0.1,0.5,0.3,0.7l6.5,6.5c0.3,0.4,0.8,0.6,1.4,0.6h9.4l-12.2-12.2c-0.2-0.2-0.4-0.3-0.7-0.3
		c0.3,0,0.5-0.1,0.7-0.3L125,64.9h-10.2l-6.1,6.1c-0.2,0.2-0.3,0.4-0.3,0.7c0-0.3-0.1-0.5-0.3-0.7l-6.1-6.1H91.8l11.2,11.2
		c0.2,0.2,0.4,0.3,0.7,0.3c-0.3,0-0.5,0.1-0.7,0.3L90.9,88.8h9.4c0.5,0,1-0.2,1.4-0.6l6.5-6.5C108.3,81.5,108.4,81.3,108.4,81
		 M84.4,70.2v13.2c0,0.2,0.1,0.5,0.3,0.7c-0.2-0.2-0.4-0.3-0.7-0.3H66.4c-0.2,0-0.5,0.1-0.7,0.3c0.2-0.2,0.3-0.4,0.3-0.7V70.2
		c0-0.2-0.1-0.5-0.3-0.7c0.2,0.2,0.4,0.3,0.7,0.3H84c0.2,0,0.5-0.1,0.7-0.3C84.5,69.7,84.4,70,84.4,70.2 M91.8,81.9V71.7
		c0-3.8-3.1-6.9-6.9-6.9H65.5c-3.8,0-6.9,3.1-6.9,6.9v10.1c0,3.8,3.1,6.9,6.9,6.9h19.4C88.7,88.8,91.8,85.7,91.8,81.9"/>
	<path fill="#666666" d="M289.8,76.8l6.4-12h3l-8,14.7v9.3h-2.8v-9.2l-8-14.8h3.1L289.8,76.8z M277.1,88.8h-3.2l-13.1-20.1h-0.1
		c0.2,2.4,0.3,4.5,0.3,6.5v13.6h-2.6v-24h3.2l13.1,20h0.1c0-0.3-0.1-1.2-0.1-2.8c-0.1-1.6-0.1-2.7-0.1-3.4V64.9h2.6V88.8z
		 M248.3,78.7l-2.8-7.4c-0.4-0.9-0.7-2.1-1.1-3.5c-0.2,1.1-0.6,2.2-1,3.5l-2.8,7.4H248.3z M252.1,88.8l-3-7.6h-9.6l-3,7.6h-2.8
		l9.5-24.1h2.4l9.5,24.1H252.1z M219.6,77h2.5c2.5,0,4.3-0.4,5.4-1.2c1.1-0.8,1.7-2.1,1.7-3.8c0-1.6-0.5-2.8-1.6-3.5
		c-1-0.8-2.7-1.2-4.9-1.2h-3.1V77z M232,71.8c0,2.4-0.8,4.3-2.5,5.6c-1.7,1.3-4,2-7.1,2h-2.8v9.4h-2.8v-24h6.2
		C229,64.9,232,67.2,232,71.8 M197,88.8l-8.2-21.2h-0.1c0.2,1.7,0.2,3.7,0.2,6v15.2h-2.6v-24h4.2l7.6,19.8h0.1l7.7-19.8h4.2v24h-2.8
		V73.4c0-1.8,0.1-3.7,0.2-5.8h-0.1l-8.2,21.2H197z M161.9,76.8c0,3.2,0.7,5.7,2.1,7.4c1.4,1.7,3.4,2.5,6,2.5c2.7,0,4.7-0.8,6-2.5
		c1.4-1.7,2-4.1,2-7.4c0-3.2-0.7-5.7-2-7.3c-1.4-1.7-3.4-2.5-6-2.5c-2.7,0-4.7,0.8-6.1,2.5C162.6,71.2,161.9,73.6,161.9,76.8
		 M181,76.8c0,3.8-1,6.9-2.9,9c-1.9,2.2-4.7,3.3-8.1,3.3c-3.5,0-6.3-1.1-8.2-3.2c-1.9-2.2-2.9-5.2-2.9-9.1c0-3.9,1-6.9,2.9-9.1
		c1.9-2.1,4.7-3.2,8.2-3.2c3.5,0,6.1,1.1,8.1,3.3C180,69.9,181,73,181,76.8 M149.2,67c-2.6,0-4.7,0.9-6.3,2.6
		c-1.5,1.8-2.3,4.2-2.3,7.2c0,3.1,0.7,5.6,2.2,7.3c1.5,1.7,3.6,2.6,6.3,2.6c1.7,0,3.6-0.3,5.7-0.9v2.4c-1.7,0.6-3.7,0.9-6.2,0.9
		c-3.5,0-6.3-1.1-8.2-3.2c-1.9-2.1-2.9-5.2-2.9-9.1c0-2.5,0.5-4.6,1.4-6.5c0.9-1.9,2.3-3.3,4-4.3c1.7-1,3.8-1.5,6.2-1.5
		c2.5,0,4.7,0.5,6.6,1.4l-1.2,2.4C152.8,67.4,151,67,149.2,67"/>
	<path fill="#666666" d="M42.7,88.8h-3.2L26.3,68.7h-0.1c0.2,2.4,0.3,4.5,0.3,6.5v13.6h-2.6v-24H27l13.1,20h0.1
		c0-0.3-0.1-1.2-0.1-2.8c-0.1-1.6-0.1-2.7-0.1-3.4V64.9h2.6V88.8z M13.8,78.7L11,71.3c-0.4-0.9-0.7-2.1-1.1-3.5
		c-0.2,1.1-0.6,2.2-1,3.5l-2.8,7.4H13.8z M17.7,88.8l-3-7.6H5.1l-3,7.6h-2.8l9.5-24.1h2.4l9.5,24.1H17.7z"/>
</g>
<path fill="#E66E00" d="M327.3,12.8c0,6.6-5.4,12-12,12c-6.6,0-12-5.4-12-12s5.4-12,12-12C321.9,0.8,327.3,6.2,327.3,12.8"/>
<path fill="#E66E00" d="M327.3,40.8c0,6.6-5.4,12-12,12c-6.6,0-12-5.4-12-12s5.4-12,12-12C321.9,28.8,327.3,34.2,327.3,40.8"/>
<path fill="#E66E00" d="M355.3,12.8c0,6.6-5.4,12-12,12c-6.6,0-12-5.4-12-12s5.4-12,12-12C349.9,0.8,355.3,6.2,355.3,12.8"/>
<path fill="#E66E00" d="M355.3,40.8c0,6.6-5.4,12-12,12c-6.6,0-12-5.4-12-12s5.4-12,12-12C349.9,28.8,355.3,34.2,355.3,40.8"/>
<path fill="#E66E00" d="M383.3,12.8c0,6.6-5.4,12-12,12c-6.6,0-12-5.4-12-12s5.4-12,12-12C377.9,0.8,383.3,6.2,383.3,12.8"/>
<path fill="#E66E00" d="M383.3,40.8c0,6.6-5.4,12-12,12c-6.6,0-12-5.4-12-12s5.4-12,12-12C377.9,28.8,383.3,34.2,383.3,40.8"/>
<path fill="#666666" d="M12.4,24.2c0.3,0,0.5,0,0.6,0c1.3,0,2.4-0.4,3.3-1.1c1.3-0.9,1.9-2.5,1.9-4.6c0-1.8-0.5-3.3-1.5-4.4
	c-0.9-1-2-1.5-3.4-1.5c-0.2,0-0.5,0-0.9,0V24.2z M12.4,51.9H-0.7V1.7h12.7c6.3,0,11,1.3,14.1,4c3.6,3.1,5.4,7.5,5.4,13.1
	c0,3.7-0.8,6.8-2.3,9.5c-2,3.6-5.2,5.8-9.4,6.7c-1.4,0.3-3.2,0.4-5.3,0.4c-0.4,0-1.1,0-2.1,0V51.9"/>
<path fill="#666666" d="M52.8,13.5c-1.3,0-2.4,0.9-3.3,2.7c-1.1,2.4-1.7,5.9-1.7,10.6c0,5.2,0.6,8.9,1.8,11.1c0.8,1.5,1.8,2.2,3,2.2
	c1.2,0,2.2-0.8,3.1-2.3c1.2-2.1,1.8-5.7,1.8-10.7C57.5,18,56,13.5,52.8,13.5 M52.8,0.8c3.9,0,7.3,1.3,10.3,3.8c5.3,4.5,8,12,8,22.3
	c0,8.1-1.8,14.6-5.5,19.4c-1.6,2-3.4,3.6-5.6,4.8c-2.2,1.1-4.5,1.7-7,1.7c-3.6,0-6.9-1.2-10-3.5c-5.8-4.4-8.7-12-8.7-22.9
	c0-8.3,1.9-14.7,5.7-19.2C43.5,3,47.8,0.8,52.8,0.8"/>
<polygon fill="#666666" points="116,51.9 103.4,51.9 98.5,21.5 94.6,51.9 81.9,51.9 71.1,1.7 84,1.7 88.3,32.1 92.9,1.7 104.1,1.7 
	109,32.5 113.1,1.7 125.9,1.7 "/>
<polygon fill="#666666" points="129.3,51.9 129.3,1.7 153.6,1.7 153.6,13.5 142.4,13.5 142.4,20.9 152.5,20.9 152.5,32.2 
	142.4,32.2 142.4,39.8 153.6,39.8 153.6,51.9 "/>
<path fill="#666666" d="M173.2,24.9c0.4,0,0.7,0,0.9,0c1.6,0,2.8-0.6,3.7-1.8c1-1.3,1.5-2.8,1.5-4.6c0-2.8-1.1-4.6-3.3-5.3
	c-0.7-0.2-1.6-0.3-2.8-0.3V24.9z M194.6,51.9h-14.2l-7.2-20.6v20.6h-13.1V1.7h13.4c5.9,0,10.3,1.2,13.2,3.6c1.8,1.5,3.1,3.4,4.1,5.7
	c1,2.3,1.5,4.8,1.5,7.5c0,6.1-2.5,10.3-7.5,12.6L194.6,51.9z"/>
<path fill="#666666" d="M211.1,39.8c4.7-0.2,7-4.4,7-12.5c0-5.5-1.1-9.4-3.3-11.7c-0.8-0.8-2-1.3-3.7-1.3V39.8z M198,51.9V1.7h11.3
	c7.1,0,12.5,2.2,16.2,6.6c4,4.7,6,10.8,6,18.5c0,8.3-2,14.8-6,19.3c-2.2,2.4-4.9,4.1-8.1,5c-1.9,0.5-4.3,0.8-7.2,0.8H198z"/>
<polygon fill="#666666" points="235.7,51.9 235.7,1.7 248.2,1.7 257.3,27.9 257.3,1.7 269.8,1.7 269.8,51.9 257.3,51.9 248.2,25.5 
	248.2,51.9 "/>
<path fill="#666666" d="M274,50.7V34.9c2.6,3.7,5.4,5.5,8.3,5.5c1.1,0,2.1-0.3,2.8-1c0.7-0.6,1-1.3,1-2.3c0-1.2-0.5-2.2-1.6-3.3
	c-0.2-0.2-1.2-1-2.8-2.4c-2-1.6-3.6-3.2-4.7-4.6c-2.1-2.8-3.2-6-3.2-9.6c0-3.2,0.8-6.2,2.4-9c2.8-4.9,6.9-7.4,12.3-7.4
	c3.1,0,6.2,0.9,9.4,2.6v15.4c-0.8-1.3-1.7-2.4-2.7-3.3c-1.7-1.5-3.3-2.2-4.9-2.2c-1.2,0-2.2,0.5-2.9,1.4c-0.4,0.5-0.6,1.1-0.6,1.7
	c0,1,0.6,2.1,1.8,3.3c0.3,0.3,1.2,1,2.9,2.3c1.7,1.3,3.2,2.7,4.5,4.2c2.2,2.6,3.3,5.8,3.3,9.8c0,5-1.5,9.1-4.4,12.3
	c-2.9,3.2-6.6,4.8-11,4.8C280.6,52.8,277.3,52.1,274,50.7"/>
</svg>
