<?xml version="1.0" encoding="UTF-8" standalone="no"?>
<svg xmlns:dc="http://purl.org/dc/elements/1.1/" xmlns:cc="http://creativecommons.org/ns#" xmlns:rdf="http://www.w3.org/1999/02/22-rdf-syntax-ns#" xmlns:svg="http://www.w3.org/2000/svg" xmlns="http://www.w3.org/2000/svg" xmlns:sodipodi="http://sodipodi.sourceforge.net/DTD/sodipodi-0.dtd" xmlns:inkscape="http://www.inkscape.org/namespaces/inkscape" version="1.1" width="502.60031" height="441.06461" id="svg2" inkscape:version="0.48.4 r9939" sodipodi:docname="Ajax.svg">
  <metadata id="metadata16">
    <rdf:RDF>
      <cc:Work rdf:about="">
        <dc:format>image/svg+xml</dc:format>
        <dc:type rdf:resource="http://purl.org/dc/dcmitype/StillImage"/>
        <dc:title/>
      </cc:Work>
    </rdf:RDF>
  </metadata>
  <defs id="defs14"/>
  <sodipodi:namedview pagecolor="#ffffff" bordercolor="#666666" borderopacity="1" objecttolerance="10" gridtolerance="10" guidetolerance="10" inkscape:pageopacity="0" inkscape:pageshadow="2" inkscape:window-width="1280" inkscape:window-height="1001" id="namedview12" showgrid="false" fit-margin-top="1.3" fit-margin-left="1.3" fit-margin-right="1.3" fit-margin-bottom="1.3" inkscape:zoom="1.1145218" inkscape:cx="91.028199" inkscape:cy="206.7411" inkscape:window-x="-8" inkscape:window-y="-8" inkscape:window-maximized="1" inkscape:current-layer="svg2"/>
  <path d="m 233.68007,11.472896 a 20.345787,20.345787 0 0 1 35.23994,0 L 498.57467,409.24569 a 20.345787,20.345787 0 0 1 -17.6198,30.51837 l -459.309104,5.5e-4 A 20.345787,20.345787 0 0 1 4.0258068,409.24595 z" style="fill:#ffffff;stroke:#000000;stroke-opacity:1;stroke-width:2;stroke-miterlimit:4;stroke-dasharray:none" id="path6" inkscape:connector-curvature="0"/>
  <path d="M 251.30004,94.896826 85.068716,382.78971 l 332.463184,0 z M 491.52879,413.32018 c 2.12496,3.69002 2.1214,8.51259 -0.009,12.19948 -2.13039,3.68689 -6.30681,6.09825 -10.56494,6.09994 l -459.309114,0 c -4.25813,-0.002 -8.43455,-2.41305 -10.56494,-6.09994 -2.1303892,-3.68689 -2.1339392,-8.50945 -0.009,-12.19947 L 240.72797,15.548206 c 2.13058,-3.6904 6.3108,-6.1038894 10.57207,-6.1038894 4.26127,0 8.44149,2.4134894 10.57207,6.1038894 z" style="fill:#cf181f;fill-opacity:1;stroke:none" id="path8" inkscape:connector-curvature="0" sodipodi:nodetypes="cccccsccsccscc"/>
  <path style="fill:#000000;fill-opacity:1;fill-rule:evenodd;stroke:none" d="m 198.20729,310.00836 c -0.61242,0.005 -1.23091,0.0238 -1.84375,0.0625 -5.21842,0.30279 -10.45123,1.83962 -14.59375,4.90625 -4.29069,3.06662 -7.34452,7.64036 -10.875,11.9375 -3.37586,4.29069 -7.49707,8.13591 -12.40625,10.28125 -3.67866,1.68794 -7.83431,2.29421 -12.125,2.90625 l 0.15625,30.6875 209.56025,0 0.15625,-30.6875 c -4.29069,-0.61204 -8.44634,-1.21831 -12.125,-2.90625 -4.90918,-2.14534 -9.03039,-5.99056 -12.40625,-10.28125 -3.53048,-4.29714 -6.58431,-8.87088 -10.875,-11.9375 -4.14252,-3.06663 -9.37533,-4.60346 -14.59375,-4.90625 -0.61284,-0.0387 -1.23132,-0.0578 -1.84375,-0.0625 -4.28698,-0.0332 -8.53756,0.75834 -12.5625,2.5 -4.29714,1.68793 -8.26906,4.44471 -11.1875,7.96875 -3.36942,3.6851 -5.53683,8.28846 -8.90625,11.8125 -3.6851,3.9879 -8.72716,6.58843 -14.09375,7.8125 -2.08744,0.50705 -4.22628,0.79991 -6.34244,0.84375 -2.11616,-0.0438 -4.25537,-0.3367 -6.34281,-0.84375 -5.36659,-1.22407 -10.40865,-3.8246 -14.09375,-7.8125 -3.36941,-3.52404 -5.53683,-8.1274 -8.90625,-11.8125 -2.91844,-3.52404 -6.89035,-6.28082 -11.1875,-7.96875 -4.02493,-1.74166 -8.27551,-2.53316 -12.5625,-2.5 z" id="path4592" inkscape:connector-curvature="0" sodipodi:nodetypes="sccccccccccccscccccccccs"/>
</svg>