<?xml version="1.0" encoding="UTF-8" standalone="no"?>
<!-- Created with Inkscape (http://www.inkscape.org/) -->

<svg
   xmlns:dc="http://purl.org/dc/elements/1.1/"
   xmlns:cc="http://creativecommons.org/ns#"
   xmlns:rdf="http://www.w3.org/1999/02/22-rdf-syntax-ns#"
   xmlns:svg="http://www.w3.org/2000/svg"
   xmlns="http://www.w3.org/2000/svg"
   xmlns:sodipodi="http://sodipodi.sourceforge.net/DTD/sodipodi-0.dtd"
   xmlns:inkscape="http://www.inkscape.org/namespaces/inkscape"
   width="560mm"
   height="560mm"
   viewBox="0 0 560 559.99998"
   version="1.1"
   id="svg823"
   inkscape:version="0.92.3 (2405546, 2018-03-11)"
   sodipodi:docname="high_latency.svg">
  <defs
     id="defs817" />
  <sodipodi:namedview
     id="base"
     pagecolor="#ffffff"
     bordercolor="#666666"
     borderopacity="1.0"
     inkscape:pageopacity="0.0"
     inkscape:pageshadow="2"
     inkscape:zoom="0.142707"
     inkscape:cx="1664.5662"
     inkscape:cy="1026.1906"
     inkscape:document-units="mm"
     inkscape:current-layer="layer1"
     showgrid="false"
     inkscape:window-width="1914"
     inkscape:window-height="1052"
     inkscape:window-x="0"
     inkscape:window-y="0"
     inkscape:window-maximized="0"
     inkscape:snap-global="false"
     inkscape:measure-start="-54.8008,221.678"
     inkscape:measure-end="0,0"
     fit-margin-top="0"
     fit-margin-left="0"
     fit-margin-right="0"
     fit-margin-bottom="0" />
  <metadata
     id="metadata820">
    <rdf:RDF>
      <cc:Work
         rdf:about="">
        <dc:format>image/svg+xml</dc:format>
        <dc:type
           rdf:resource="http://purl.org/dc/dcmitype/StillImage" />
        <dc:title></dc:title>
      </cc:Work>
    </rdf:RDF>
  </metadata>
  <g
     inkscape:label="Layer 1"
     inkscape:groupmode="layer"
     id="layer1"
     transform="translate(-22.999939,286)">
    <circle
       style="opacity:1;fill:#dc0000;fill-opacity:1;fill-rule:nonzero;stroke:none;stroke-width:0.07791566;stroke-linecap:square;stroke-linejoin:round;stroke-miterlimit:10;stroke-dasharray:none;stroke-opacity:1;paint-order:stroke fill markers"
       id="path814"
       cx="302.99994"
       cy="-6"
       r="280" />
    <circle
       r="220"
       cy="-6"
       cx="302.99994"
       id="circle816"
       style="opacity:1;fill:#ffffff;fill-opacity:1;fill-rule:nonzero;stroke:none;stroke-width:0.06121945;stroke-linecap:square;stroke-linejoin:round;stroke-miterlimit:10;stroke-dasharray:none;stroke-opacity:1;paint-order:stroke fill markers" />
    <path
       sodipodi:nodetypes="ccccccc"
       inkscape:connector-curvature="0"
       id="path1477"
       d="M 209.99995,-75.999988 H 230 v 119.99996 h 39.99994 v 20 h -59.99999 z"
       style="opacity:1;fill:#000000;fill-opacity:1;fill-rule:nonzero;stroke:none;stroke-width:3.3682878;stroke-linejoin:bevel;stroke-miterlimit:10;stroke-dasharray:none;stroke-opacity:1" />
    <path
       inkscape:connector-curvature="0"
       id="path1481"
       d="m 385.99991,-75.999688 20,139.99966 h 20.0004 l 9.9996,-69.9999801 10.0004,69.9999801 h 19.9996 l 20.0004,-139.99966 h -20.0004 l -10,69.9996799 -9.9996,-69.9996799 h -20 l -10.0004,69.9996799 -10,-69.9996799 z"
       style="opacity:1;fill:#000000;fill-opacity:1;fill-rule:nonzero;stroke:none;stroke-width:0.17517957;stroke-linejoin:bevel;stroke-miterlimit:10;stroke-dasharray:none;stroke-opacity:1"
       sodipodi:nodetypes="cccccccccccccc" />
    <path
       style="opacity:1;fill:#000000;fill-opacity:1;fill-rule:nonzero;stroke:none;stroke-width:28.47663689;stroke-linecap:round;stroke-linejoin:miter;stroke-miterlimit:4;stroke-dasharray:none;stroke-opacity:1"
       d="m 149.99996,-75.999988 c -16.62009,0 -29.99996,13.37991 -29.99996,29.99993 v 5.33508 c 0,9.14277 4.16892,17.78648 11.32397,23.47804 l 34.90065,27.76132 c 2.38497,1.89716 3.77552,4.778 3.77552,7.82555 v 15.6001 c 0.35595,5.52857 -4.46019,10.0001 -10.00012,10.0001 h -10.00006 c -5.53994,0 -9.99971,-4.46007 -9.99971,-10.0001 V 23.999902 H 120 v 10.00013 c 0,16.62002 13.37987,29.99994 29.99996,29.99994 h 10.00006 c 16.62009,0 29.99996,-13.37992 29.99996,-29.99994 v -15.6001 c 0,-9.14276 -4.16962,-17.7864602 -11.32481,-23.4780101 L 143.77423,-32.839408 c -2.3849,-1.89717 -3.77398,-4.77802 -3.77398,-7.82555 l -4.1e-4,-5.3351 c 0,-5.54001 4.46004,-10.00007 10.00012,-10.00007 h 10.00006 c 5.53993,0 9.99971,4.46006 9.99971,10.00007 v 10.00012 h 20.00025 v -10.00012 c 0,-16.62002 -13.37987,-29.99993 -29.99996,-29.99993 z"
       id="rect860"
       inkscape:connector-curvature="0"
       sodipodi:nodetypes="ssccccssssccssssccccssssccsss" />
    <rect
       style="opacity:1;fill:#000000;fill-opacity:1;fill-rule:nonzero;stroke:none;stroke-width:2.92692137;stroke-linecap:square;stroke-linejoin:round;stroke-miterlimit:10;stroke-dasharray:none;stroke-opacity:1;paint-order:markers stroke fill"
       id="rect860-7"
       width="79.999985"
       height="139.99995"
       x="286"
       y="-75.999954"
       rx="29.999994"
       ry="29.999994" />
    <rect
       ry="9.9999981"
       rx="9.9999981"
       y="-56.000076"
       x="305.99982"
       height="99.999969"
       width="39.999996"
       id="rect862"
       style="opacity:1;fill:#ffffff;fill-opacity:1;fill-rule:nonzero;stroke:none;stroke-width:1.74917066;stroke-linecap:square;stroke-linejoin:round;stroke-miterlimit:10;stroke-dasharray:none;stroke-opacity:1;paint-order:markers stroke fill" />
  </g>
</svg>
