<?xml version="1.0" encoding="UTF-8" standalone="no"?>
<svg
   xmlns:dc="http://purl.org/dc/elements/1.1/"
   xmlns:cc="http://creativecommons.org/ns#"
   xmlns:rdf="http://www.w3.org/1999/02/22-rdf-syntax-ns#"
   xmlns:svg="http://www.w3.org/2000/svg"
   xmlns="http://www.w3.org/2000/svg"
   xml:space="preserve"
   id="svg2816"
   height="445.00006"
   width="445"
   version="1.1"><metadata
     id="metadata81"><rdf:RDF><cc:Work
         rdf:about=""><dc:format>image/svg+xml</dc:format><dc:type
           rdf:resource="http://purl.org/dc/dcmitype/StillImage" /><dc:title></dc:title></cc:Work></rdf:RDF></metadata><defs
     id="defs2820"><clipPath
       id="clipPath2832"><path
         id="path2834"
         d="M -0.24,595.138 H 317.24 V -0.138 H -0.24 Z" /></clipPath><clipPath
       id="clipPath2840"><path
         id="path2842"
         d="M 0.03,595.32 H 317.49 V 0 H 0.03 Z" /></clipPath><clipPath
       id="clipPath2858"><path
         id="path2860"
         d="M -0.24,595.138 H 317.24 V -0.138 H -0.24 Z" /></clipPath><clipPath
       id="clipPath2864"><path
         id="path2866"
         d="M 0.03,595.32 H 317.49 V 0 H 0.03 Z" /></clipPath><clipPath
       id="clipPath3306"><path
         id="path3308"
         d="m 199.238,472.977 v -29.74 h 29.744 v 29.74" /></clipPath><clipPath
       id="clipPath3322"><path
         id="path3324"
         d="M -0.24,595.138 H 317.24 V -0.138 H -0.24 Z" /></clipPath><clipPath
       id="clipPath3330"><path
         id="path3332"
         d="M 0.03,595.32 H 317.49 V 0 H 0.03 Z" /></clipPath><clipPath
       id="clipPath3344"><path
         id="path3346"
         d="m 88.233,387.221 v -28.335 h 32.08 v 28.335" /></clipPath><clipPath
       id="clipPath3462"><path
         id="path3464"
         d="M -0.24,595.138 H 317.24 V -0.138 H -0.24 Z" /></clipPath><clipPath
       id="clipPath3470"><path
         id="path3472"
         d="M 0.03,595.32 H 317.49 V 0 H 0.03 Z" /></clipPath><clipPath
       id="clipPath3490"><path
         id="path3492"
         d="M -0.24,595.138 H 317.24 V -0.138 H -0.24 Z" /></clipPath><clipPath
       id="clipPath3496"><path
         id="path3498"
         d="M 0.03,595.32 H 317.49 V 0 H 0.03 Z" /></clipPath><clipPath
       id="clipPath3520"><path
         id="path3522"
         d="m 254.788,326.215 v -28.309 h 28.326 v 28.309" /></clipPath><clipPath
       id="clipPath3544"><path
         id="path3546"
         d="m 145.049,326.142 v -28.333 h 28.342 v 28.333" /></clipPath><clipPath
       id="clipPath3682"><path
         id="path3684"
         d="M -0.24,595.138 H 317.24 V -0.138 H -0.24 Z" /></clipPath><clipPath
       id="clipPath3690"><path
         id="path3692"
         d="M 0.03,595.32 H 317.49 V 0 H 0.03 Z" /></clipPath><clipPath
       id="clipPath3980"><path
         id="path3982"
         d="M -0.24,595.138 H 317.24 V -0.138 H -0.24 Z" /></clipPath><clipPath
       id="clipPath3988"><path
         id="path3990"
         d="M 0.03,595.32 H 317.49 V 0 H 0.03 Z" /></clipPath><clipPath
       id="clipPath4010"><path
         id="path4012"
         d="M -0.24,595.138 H 317.24 V -0.138 H -0.24 Z" /></clipPath><clipPath
       id="clipPath4016"><path
         id="path4018"
         d="M 0.03,595.32 H 317.49 V 0 H 0.03 Z" /></clipPath><clipPath
       id="clipPath4062"><path
         id="path4064"
         d="m 200.163,177.773 v -28.284 h 28.283 v 28.284" /></clipPath><clipPath
       id="clipPath4090"><path
         id="path4092"
         d="m 34.886,177.515 v -51.632 h 30.367 v 51.632" /></clipPath><clipPath
       id="clipPath4106"><path
         id="path4108"
         d="m 34.886,177.515 v -51.632 h 30.367 v 51.632" /></clipPath><clipPath
       id="clipPath4272"><path
         id="path4274"
         d="m 34.886,177.515 v -51.632 h 30.367 v 51.632" /></clipPath><clipPath
       id="clipPath4304"><path
         id="path4306"
         d="m 254.653,176.442 v -48.167 h 28.317 v 48.167" /></clipPath><clipPath
       id="clipPath4310"><path
         id="path4312"
         d="m 253.565,177.983 h 31.181 V 128.8 h -31.181 z" /></clipPath><clipPath
       id="clipPath4316"><path
         id="path4318"
         d="M -0.24,595.138 H 317.24 V -0.138 H -0.24 Z" /></clipPath><clipPath
       id="clipPath4322"><path
         id="path4324"
         d="M 0.03,595.32 H 317.49 V 0 H 0.03 Z" /></clipPath><clipPath
       id="clipPath4456"><path
         id="path4458"
         d="M -0.24,595.138 H 317.24 V -0.138 H -0.24 Z" /></clipPath><clipPath
       id="clipPath4464"><path
         id="path4466"
         d="M 0.03,595.32 H 317.49 V 0 H 0.03 Z" /></clipPath></defs><path
     id="path10140"
     d="m 222.5,440.50005 c 120.39803,0 218,-97.60184 218,-217.99992 C 440.5,102.1021 342.89803,4.5 222.5,4.5 c -120.3981,0 -218,97.6021 -218,218.00013 0,120.39808 97.6019,217.99992 218,217.99992 z"
     style="fill:#ffffff;fill-opacity:1;stroke:#000000;stroke-width:4;stroke-miterlimit:4;stroke-dasharray:none;stroke-opacity:1" /><path
     style="fill:#206634;fill-opacity:1;stroke:none"
     d="m 222.5,398.50005 c -97.20207,0 -176,-78.79781 -176,-175.99993 0,-97.20207 78.79793,-176.0001 176,-176.0001 97.20213,0 176,78.79803 176,176.0001 0,97.20212 -78.79787,175.99993 -176,175.99993 z"
     id="path3022" /><g
     id="text8577"
     style="font-size:125.71841431px;stroke:#ffffff;stroke-width:2.71558809;stroke-miterlimit:4;stroke-dasharray:none;stroke-opacity:1"
     transform="matrix(0.7364782,0,0,0.73649926,58.618734,69.535845)"><path
       id="path9840"
       style="font-variant:normal;font-weight:bold;font-stretch:normal;font-size:146.64321899px;font-family:Arial-BoldMT;-inkscape-font-specification:Arial-BoldMT;writing-mode:lr-tb;fill:#ffffff;fill-opacity:1;fill-rule:nonzero;stroke:#ffffff;stroke-width:3.71660352;stroke-miterlimit:4;stroke-dasharray:none;stroke-opacity:1"
       d="m 154.45684,224.63525 v -18.38759 l 55.78579,-0.10686 v 58.15616 c -8.56413,8.12476 -17.39761,14.23614 -26.50049,18.33416 -9.1031,4.098 -18.44563,6.14701 -28.02764,6.14702 -12.93591,-1e-5 -24.68893,-3.29625 -35.25913,-9.88869 -10.57029,-6.59244 -18.55037,-16.12477 -23.940287,-28.597 -5.389939,-12.47218 -8.084903,-26.40541 -8.084892,-41.79975 -1.1e-5,-15.25164 2.679983,-29.48776 8.039981,-42.70841 5.359968,-13.22042 13.070558,-23.03782 23.131788,-29.45225 10.06116,-6.41413 21.64949,-9.62127 34.76505,-9.62143 9.52213,1.6e-4 18.13104,1.83537 25.82675,5.5056 7.69551,3.67054 13.72924,8.78414 18.10119,15.34082 4.37172,6.55695 7.69549,15.10932 9.97137,25.65714 l -15.72063,5.13142 c -1.97643,-7.9821 -4.43183,-14.25385 -7.36624,-18.81522 -2.93461,-4.56114 -7.12678,-8.21372 -12.57651,-10.95775 -5.4499,-2.74375 -11.49859,-4.11568 -18.1461,-4.11583 -7.96518,1.5e-4 -14.85231,1.44337 -20.6614,4.32964 -5.80919,2.88657 -10.49544,6.68168 -14.05874,11.38535 -3.56337,4.70392 -6.3332,9.87099 -8.30948,15.50119 -3.35376,9.69279 -5.03062,20.20507 -5.0306,31.53687 -2e-5,13.96896 2.0212,25.65719 6.06368,35.06475 4.04242,9.40764 9.92641,16.39208 17.65203,20.95332 7.7255,4.56129 15.93017,6.84192 24.61401,6.84191 7.54582,1e-5 14.91206,-1.72829 22.09871,-5.18489 7.18648,-3.45656 12.6363,-7.14477 16.34947,-11.06464 v -29.18498 z" /><path
       id="path9842"
       style="font-variant:normal;font-weight:bold;font-stretch:normal;font-size:146.64321899px;font-family:Arial-BoldMT;-inkscape-font-specification:Arial-BoldMT;writing-mode:lr-tb;fill:#ffffff;fill-opacity:1;fill-rule:nonzero;stroke:#ffffff;stroke-width:3.71660352;stroke-miterlimit:4;stroke-dasharray:none;stroke-opacity:1"
       d="m 230.66547,209.7755 c -2e-5,-26.01337 5.86901,-46.3787 17.6071,-61.09603 11.73803,-14.71707 26.8897,-22.07566 45.45509,-22.07582 12.15719,1.6e-4 23.1167,3.45674 32.87856,10.36975 9.76167,6.91333 17.20275,16.55256 22.3233,28.91773 5.12032,12.36541 7.68052,26.38774 7.68066,42.067 -1.4e-4,15.89322 -2.69509,30.11152 -8.08489,42.65497 -5.39006,12.5435 -13.02579,22.04018 -22.90721,28.49009 -9.88163,6.44993 -20.54171,9.67486 -31.98027,9.67489 -12.39689,-3e-5 -23.47618,-3.56351 -33.23791,-10.69049 -9.76178,-7.12695 -17.15796,-16.85527 -22.18854,-29.18497 -5.03061,-12.32963 -7.54591,-25.37198 -7.54589,-39.12712 z m 17.96642,0.32072 c -2e-5,18.88654 4.26701,33.7641 12.80109,44.63271 8.53401,10.86866 19.23901,16.30298 32.11501,16.30296 13.11541,2e-5 23.91024,-5.48775 32.3845,-16.46332 8.47406,-10.9755 12.71113,-26.54794 12.71125,-46.71736 -1.2e-4,-12.7572 -1.81172,-23.8931 -5.43485,-33.40771 -3.62333,-9.51439 -8.92343,-16.89081 -15.90029,-22.12927 -6.97706,-5.23819 -14.80742,-7.85735 -23.49112,-7.8575 -12.337,1.5e-4 -22.95216,5.04248 -31.8455,15.12703 -8.89342,10.08478 -13.34011,26.92225 -13.34009,50.51246 z" /></g></svg>